#!OML:ASF I:\Actors\actors\Patient Classification 2\Patient 1\Session 1\actor1.ASF
:FULLY-SPECIFIED
:DEGREES
457
root -0.484542 18.1929 6.03818 11.0219 9.25747 -3.97827
lowerback 15.2838 2.18411 4.97672
upperback -5.49581 4.06688 0.298237
thorax -14.4994 1.43411 -3.58414
lowerneck -22.5831 7.62426 5.89796
upperneck -12.0322 8.66703 -5.03842
head 0.290999 4.07312 -2.02905
rclavicle 3.99806e-014 1.2424e-014
rhumerus -59.0824 6.48927 -93.588
rradius 125.273
rwrist 18.9501
rhand -4.21609 -47.4974
rfingers 7.12502
rthumb 21.5464 -76.3189
lclavicle 3.99806e-014 1.2424e-014
lhumerus -47.1892 -19.6485 96.5847
lradius 124.175
lwrist -5.33797
lhand 12.2264 -8.57117
lfingers 7.12502
lthumb 37.2349 17.4322
rfemur -15.3584 -18.042 18.9821
rtibia 26.9027
rfoot -21.7429 -0.15632
rtoes -16.6234
lfemur -29.5737 0.0597135 -9.67659
ltibia 42.7248
lfoot -23.381 -0.787801
ltoes -57.386
458
root -0.486215 18.1863 6.00309 11.4918 9.26475 -3.87644
lowerback 15.6369 2.09731 4.97877
upperback -5.62479 3.97385 0.258791
thorax -14.8787 1.36916 -3.63142
lowerneck -22.7739 6.6401 5.57626
upperneck -10.7073 7.45866 -4.6618
head 0.690389 3.48522 -1.92453
rclavicle -2.73205e-014 9.14409e-015
rhumerus -59.2638 6.54188 -93.542
rradius 125.579
rwrist 19.4798
rhand -3.08036 -47.5498
rfingers 7.12502
rthumb 22.6368 -76.2423
lclavicle -2.73205e-014 9.14409e-015
lhumerus -47.5937 -19.2225 96.3734
lradius 124.426
lwrist -5.33925
lhand 12.4583 -8.63155
lfingers 7.12502
lthumb 37.454 17.3142
rfemur -16.3204 -17.9471 19.063
rtibia 27.5217
rfoot -21.9782 -0.183257
rtoes -16.749
lfemur -30.3709 0.207904 -9.8057
ltibia 42.9984
lfoot -23.2628 -0.842025
ltoes -57.3697
459
root -0.488433 18.1747 5.95907 12.0818 9.28761 -3.77902
lowerback 16.0085 1.99663 4.9997
upperback -5.76904 3.87233 0.248837
thorax -15.2924 1.29872 -3.65434
lowerneck -23.1406 5.55153 5.002
upperneck -8.85842 6.1699 -4.20291
head 1.29389 2.86467 -1.75482
rclavicle 5.59455e-014 1.10325e-014
rhumerus -59.4765 6.81914 -93.5389
rradius 125.845
rwrist 19.3975
rhand -3.28639 -47.4181
rfingers 7.12502
rthumb 22.4391 -76.1346
lclavicle 5.59455e-014 1.10325e-014
lhumerus -48.0424 -18.7404 96.187
lradius 124.689
lwrist -5.31022
lhand 12.6055 -8.77096
lfingers 7.12502
lthumb 37.5931 17.1378
rfemur -17.5423 -17.8676 19.1923
rtibia 28.3126
rfoot -22.249 -0.165753
rtoes -16.9993
lfemur -31.3927 0.391637 -9.92736
ltibia 43.3757
lfoot -23.1552 -0.961136
ltoes -57.3268
460
root -0.492981 18.1571 5.90294 12.7422 9.31235 -3.66118
lowerback 16.5065 1.88234 4.99223
upperback -5.91696 3.75874 0.269384
thorax -15.7977 1.22337 -3.62917
lowerneck -23.3075 4.32165 3.95678
upperneck -6.92141 4.82088 -3.4246
head 1.88486 2.23684 -1.41403
rclavicle 1.9456e-014 -5.96354e-016
rhumerus -59.6634 7.05622 -93.5739
rradius 126.053
rwrist 19.4001
rhand -3.34185 -47.4038
rfingers 7.12502
rthumb 22.3859 -76.1267
lclavicle 1.9456e-014 -5.96354e-016
lhumerus -48.5375 -18.3012 96.0757
lradius 124.992
lwrist -5.18951
lhand 12.4712 -8.87455
lfingers 7.12502
lthumb 37.4663 17.0679
rfemur -18.9846 -17.7641 19.3273
rtibia 29.2915
rfoot -22.5863 -0.0865871
rtoes -16.8004
lfemur -32.5962 0.503859 -10.0473
ltibia 43.8695
lfoot -23.0572 -1.07769
ltoes -57.1814
461
root -0.498391 18.1337 5.83686 13.4631 9.36258 -3.53039
lowerback 17.0758 1.74328 5.01009
upperback -6.0412 3.61521 0.253014
thorax -16.321 1.1288 -3.65257
lowerneck -23.0046 3.05009 2.85109
upperneck -5.2429 3.43723 -2.61603
head 2.33183 1.59539 -1.06878
rclavicle -1.44864e-014 -8.34896e-015
rhumerus -59.8752 7.157 -93.7789
rradius 126.274
rwrist 19.3395
rhand -3.18618 -47.4364
rfingers 7.12502
rthumb 22.5353 -76.1413
lclavicle -1.44864e-014 -8.34896e-015
lhumerus -49.023 -17.9535 95.9288
lradius 125.315
lwrist -4.80048
lhand 12.2191 -8.93942
lfingers 7.12502
lthumb 37.2279 17.0658
rfemur -20.634 -17.6636 19.4731
rtibia 30.477
rfoot -22.9728 0.0301444
rtoes -16.4172
lfemur -33.9816 0.598657 -10.1833
ltibia 44.4906
lfoot -22.9639 -1.17707
ltoes -57.111
462
root -0.503659 18.1035 5.76167 14.2681 9.43815 -3.41155
lowerback 17.728 1.66431 5.17322
upperback -5.93887 3.57652 0.201611
thorax -16.5984 1.07677 -3.82501
lowerneck -23.7342 1.68147 1.41749
upperneck -2.8134 1.9826 -1.81372
head 2.79479 0.909097 -0.617469
rclavicle 4.29623e-014 -2.62396e-014
rhumerus -59.522 6.97756 -93.6905
rradius 126.391
rwrist 19.1525
rhand -3.3507 -47.3781
rfingers 7.12502
rthumb 22.3774 -76.1021
lclavicle 4.29623e-014 -2.62396e-014
lhumerus -48.905 -17.8951 95.7664
lradius 125.542
lwrist -4.27449
lhand 11.865 -9.19157
lfingers 7.12502
lthumb 36.893 16.9005
rfemur -22.5163 -17.6121 19.6716
rtibia 31.8648
rfoot -23.3695 0.15973
rtoes -16.3122
lfemur -35.584 0.77536 -10.3261
ltibia 45.2479
lfoot -22.8563 -1.34541
ltoes -57.0903
463
root -0.507 18.0648 5.67436 15.1172 9.51223 -3.29593
lowerback 18.4029 1.49073 5.30406
upperback -5.80277 3.40288 0.14959
thorax -16.8637 0.968173 -3.93778
lowerneck -23.6108 0.619328 0.427455
upperneck -0.9 0.832595 -1.23847
head 3.35146 0.362246 -0.379455
rclavicle 3.12092e-014 -1.09332e-014
rhumerus -59.2005 6.91062 -93.5946
rradius 126.505
rwrist 18.8584
rhand -4.63045 -47.4033
rfingers 7.12502
rthumb 21.1484 -76.2699
lclavicle 3.12092e-014 -1.09332e-014
lhumerus -48.7907 -17.6847 95.4
lradius 125.843
lwrist -3.95472
lhand 11.4678 -9.41928
lfingers 7.12502
lthumb 36.5172 16.7685
rfemur -24.5946 -17.6432 19.9031
rtibia 33.4302
rfoot -23.708 0.266336
rtoes -16.6007
lfemur -37.3566 0.999396 -10.4824
ltibia 46.1317
lfoot -22.7314 -1.59693
ltoes -57.0071
464
root -0.509389 18.0167 5.57657 16.0878 9.58794 -3.19868
lowerback 18.9904 1.29445 5.46835
upperback -5.60429 3.19733 0.0834708
thorax -16.997 0.848196 -4.06689
lowerneck -23.2984 -0.248949 -0.372721
upperneck 1.05041 -0.117598 -0.81823
head 3.91372 -0.0975065 -0.210108
rclavicle 1.71949e-014 -3.27995e-014
rhumerus -58.8089 6.7888 -93.3881
rradius 126.628
rwrist 18.5265
rhand -6.14232 -47.3013
rfingers 7.12502
rthumb 19.6955 -76.3235
lclavicle 1.71949e-014 -3.27995e-014
lhumerus -48.5574 -17.5748 94.9342
lradius 126.199
lwrist -3.69781
lhand 11.1869 -9.483
lfingers 7.12502
lthumb 36.2512 16.7714
rfemur -26.9395 -17.6873 20.2025
rtibia 35.1293
rfoot -24.0296 0.3263
rtoes -17.1321
lfemur -39.382 1.25102 -10.6306
ltibia 47.1246
lfoot -22.5772 -1.84553
ltoes -56.9356
465
root -0.51992 17.9627 5.47746 17.2364 9.56035 -3.10254
lowerback 19.3416 1.19003 5.44736
upperback -5.34629 3.05214 0.0319614
thorax -16.9093 0.788339 -4.07796
lowerneck -22.8714 -1.01717 -1.19419
upperneck 3.03708 -0.949271 -0.356326
head 4.48481 -0.498626 -0.0189861
rclavicle -5.71506e-015 -6.95746e-015
rhumerus -58.3518 6.53713 -93.1233
rradius 126.68
rwrist 18.3287
rhand -6.55561 -47.1013
rfingers 7.12502
rthumb 19.2982 -76.1637
lclavicle -5.71506e-015 -6.95746e-015
lhumerus -48.194 -17.6508 94.5055
lradius 126.563
lwrist -3.36063
lhand 11.1276 -9.45054
lfingers 7.12502
lthumb 36.1951 16.8178
rfemur -29.5644 -17.5887 20.5552
rtibia 36.9432
rfoot -24.4265 0.378506
rtoes -17.6388
lfemur -41.6443 1.68157 -10.8093
ltibia 48.2168
lfoot -22.4264 -2.09617
ltoes -56.9401
466
root -0.537479 17.906 5.38095 18.4894 9.37694 -2.98439
lowerback 19.5421 1.18476 5.19562
upperback -5.03368 2.9651 -0.0350953
thorax -16.6613 0.785727 -3.98521
lowerneck -22.2943 -1.62328 -1.88379
upperneck 5.053 -1.62379 0.102934
head 5.05382 -0.822362 0.162432
rclavicle 5.32743e-014 2.16675e-014
rhumerus -57.9678 6.16977 -92.8344
rradius 126.746
rwrist 18.2074
rhand -8.05396 -46.399
rfingers 7.12502
rthumb 17.8569 -75.5992
lclavicle 5.32743e-014 2.16675e-014
lhumerus -47.6342 -17.9031 94.0599
lradius 126.882
lwrist -2.94753
lhand 11.1759 -9.3261
lfingers 7.12502
lthumb 36.2408 16.9309
rfemur -32.3509 -17.4363 20.9008
rtibia 38.8389
rfoot -24.815 0.59706
rtoes -17.7384
lfemur -44.0034 2.302 -11.0781
ltibia 49.3803
lfoot -22.3059 -2.40082
ltoes -56.9136
